<svg viewBox="0 0 120 120" xmlns="http://www.w3.org/2000/svg"><defs><radialGradient id="bgF" cx="36%" cy="30%" r="94%"><stop offset="0%" stop-color="#0B47CC"/><stop offset="56%" stop-color="#0038B8"/><stop offset="100%" stop-color="#00164C"/></radialGradient><linearGradient id="spF" x1="0" y1="1" x2="1" y2="0"><stop offset="0%" stop-color="#C6841A"/><stop offset="45%" stop-color="#F3B546"/><stop offset="100%" stop-color="#FFEBB8"/></linearGradient><radialGradient id="hlF" cx="50%" cy="50%" r="50%"><stop offset="0%" stop-color="#FFE6AA" stop-opacity=".9"/><stop offset="100%" stop-color="#FFE6AA" stop-opacity="0"/></radialGradient></defs><rect x="0" y="0" width="120" height="120" fill="url(#bgF)"/><path d="M 45.69 66.33 L 45.26 65.34 L 44.91 64.31 L 44.64 63.24 L 44.45 62.15 L 44.33 61.04 L 44.31 59.91 L 44.37 58.77 L 44.51 57.63 L 44.75 56.49 L 45.07 55.36 L 45.49 54.24 L 45.99 53.16 L 46.57 52.10 L 47.25 51.08 L 48.00 50.10 L 48.84 49.18 L 49.75 48.31 L 50.74 47.51 L 51.79 46.78 L 52.91 46.12 L 54.08 45.55 L 55.31 45.06 L 56.58 44.66 L 57.89 44.35 L 59.23 44.15 L 60.60 44.04 L 61.99 44.04 L 63.39 44.15 L 64.78 44.36 L 66.17 44.68 L 67.55 45.11 L 68.90 45.65 L 70.22 46.30 L 71.50 47.05 L 72.73 47.90 L 73.91 48.86 L 75.02 49.91 L 76.05 51.05 L 77.01 52.28 L 77.87 53.60 L 78.65 54.98 L 79.32 56.44 L 79.89 57.96 L 80.34 59.53 L 80.67 61.15 L 80.89 62.80 L 80.98 64.48 L 80.94 66.18 L 80.77 67.89 L 80.47 69.60 L 80.03 71.30 L 79.46 72.97 L 78.76 74.62 L 77.93 76.22 L 76.97 77.76 L 75.89 79.25 L 74.69 80.66 L 73.36 81.99 L 71.93 83.23 L 70.40 84.36 L 68.76 85.39 L 67.04 86.30 L 65.23 87.08 L 63.35 87.73 L 61.41 88.24 L 59.42 88.61 L 57.38 88.82 L 55.32 88.88 L 53.23 88.78 L 51.14 88.53 L 49.06 88.11 L 46.99 87.52 L 44.95 86.78 L 42.96 85.87 L 41.02 84.81 L 39.15 83.59 L 37.36 82.22 L 35.66 80.70 L 34.07 79.04 L 32.59 77.25 L 31.24 75.33 L 30.03 73.29 L 28.97 71.15 L 28.06 68.92 L 27.32 66.59 L 26.75 64.20 L 26.36 61.74 L 26.16 59.24 L 26.14 56.71 L 26.32 54.15 L 26.70 51.60 L 27.27 49.05 L 28.05 46.53 L 29.02 44.06 L 30.19 41.64 L 31.55 39.29 L 33.10 37.03 L 34.83 34.88 L 36.74 32.84 L 38.83 30.93 L 41.07 29.18 L 43.46 27.58 L 45.99 26.15 L 48.64 24.91 L 51.41 23.86 L 54.28 23.02 L 57.24 22.39 L 60.26 21.98 L 63.33 21.80 L 66.44 21.86 L 69.57 22.15 L 72.69 22.69 L 75.80 23.46 L 78.86 24.49 L 81.87 25.75 L 84.81 27.25 L 87.64 28.99 L 90.37 30.96 L 92.96 33.15 L 95.41 35.55" fill="none" stroke="url(#spF)" stroke-width="5.4" stroke-linecap="round" stroke-linejoin="round"/><circle cx="95.41" cy="35.55" r="14.40" fill="url(#hlF)"/><circle cx="95.41" cy="35.55" r="6.00" fill="#F7BE4E"/><circle cx="95.41" cy="35.55" r="2.52" fill="#FFF6E0"/></svg>
