<svg viewBox="0 0 120 120" xmlns="http://www.w3.org/2000/svg"><defs><radialGradient id="bg" cx="36%" cy="30%" r="94%"><stop offset="0%" stop-color="#0B47CC"/><stop offset="56%" stop-color="#0038B8"/><stop offset="100%" stop-color="#00164C"/></radialGradient><linearGradient id="spi" x1="0" y1="1" x2="1" y2="0"><stop offset="0%" stop-color="#E09A2A"/><stop offset="55%" stop-color="#F7C24E"/><stop offset="100%" stop-color="#FFEBB8"/></linearGradient><radialGradient id="halo" cx="50%" cy="50%" r="50%"><stop offset="0%" stop-color="#FFE6AA" stop-opacity=".9"/><stop offset="100%" stop-color="#FFE6AA" stop-opacity="0"/></radialGradient></defs><rect x="0" y="0" width="120" height="120" fill="url(#bg)"/><circle cx="60" cy="61" r="37" fill="none" stroke="#F3B546" stroke-width="3.2" opacity=".9"/><path d="M 53.63 45.24 L 54.93 44.62 L 56.29 44.11 L 57.69 43.71 L 59.14 43.42 L 60.62 43.26 L 62.12 43.22 L 63.63 43.31 L 65.14 43.52 L 66.64 43.87 L 68.12 44.34 L 69.57 44.94 L 70.98 45.67 L 72.33 46.51 L 73.61 47.48 L 74.83 48.56 L 75.95 49.75 L 76.98 51.04 L 77.91 52.42 L 78.73 53.89 L 79.42 55.43 L 79.99 57.04 L 80.43 58.71 L 80.73 60.42 L 80.89 62.17 L 80.89 63.94 L 80.75 65.72 L 80.46 67.49 L 80.02 69.25 L 79.43 70.98 L 78.68 72.67 L 77.79 74.31 L 76.76 75.88 L 75.59 77.37 L 74.29 78.77 L 72.86 80.07 L 71.32 81.25 L 69.67 82.31 L 67.92 83.24 L 66.08 84.02 L 64.17 84.65 L 62.20 85.13 L 60.17 85.44 L 58.11 85.58 L 56.02 85.54 L 53.93 85.33 L 51.85 84.95 L 49.78 84.38 L 47.76 83.64 L 45.78 82.72 L 43.88 81.64 L 42.05 80.38 L 40.32 78.97 L 38.71 77.40 L 37.21 75.68 L 35.86 73.84 L 34.65 71.87 L 33.60 69.78 L 32.73 67.60 L 32.03 65.33 L 31.52 62.99 L 31.20 60.60 L 31.09 58.17 L 31.18 55.71 L 31.48 53.25 L 31.99 50.80 L 32.70 48.39 L 33.63 46.02 L 34.76 43.72 L 36.09 41.50 L 37.61 39.38 L 39.32 37.38 L 41.21 35.51 L 43.26 33.79 L 45.47 32.24 L 47.82 30.86 L 50.31 29.68 L 52.90 28.70 L 55.59 27.94 L 58.36 27.40 L 61.18 27.08 L 64.05 27.01 L 66.94 27.18 L 69.83 27.59 L 72.70 28.25 L 75.53 29.15 L 78.30 30.30 L 80.99 31.69 L 83.57 33.31 L 86.03 35.15 L 88.34 37.22" fill="none" stroke="url(#spi)" stroke-width="4.4" stroke-linecap="round" stroke-linejoin="round"/><circle cx="88.34" cy="37.22" r="12" fill="url(#halo)"/><circle cx="88.34" cy="37.22" r="6" fill="#F9C455"/><circle cx="88.34" cy="37.22" r="2.5" fill="#FFF6E0"/></svg>